<?xml version="1.0" encoding="UTF-8"?>
<svg width="22" height="22" viewBox="0 0 800 800" xmlns="http://www.w3.org/2000/svg" templateVersion="1.0">
  <g transform="translate(178.237739,623.042632) scale(0.055782,-0.055782)" fill="currentColor" stroke="none">
    <path d="M1771 7679 c-716 -76 -1297 -560 -1496 -1244 -63 -220 -59 -62 -63 -2365 -3 -2182 -3 -2216 39 -2405 130 -585 567 -1068 1144 -1261 172 -57 277 -74 520 -85 279 -11 4013 -10 4200 1 250 16 429 65 660 180 480 239 818 674 924 1190 11 52 25 158 30 235 15 189 15 4037 1 4190 -22 239 -71 411 -175 620 -85 171 -174 294 -315 436 -265 268 -547 416 -935 491 l-110 22 -2170 2 c-1216 1 -2207 -2 -2254 -7z m1367 -1173 c455 -98 805 -430 921 -876 41 -156 50 -257 26 -298 -33 -56 -95 -68 -143 -27 -27 22 -31 34 -42 122 -56 445 -335 769 -760 885 -121 32 -354 33 -483 0 -245 -61 -444 -190 -589 -381 -64 -84 -141 -244 -168 -346 -128 -488 106 -964 585 -1191 51 -24 97 -44 102 -44 6 0 22 -12 37 -26 32 -33 34 -81 6 -117 -34 -43 -68 -43 -172 -1 -181 71 -322 168 -461 314 -256 269 -366 613 -312 975 29 189 99 369 203 515 60 86 191 220 272 280 150 111 365 199 549 226 117 16 327 12 429 -10z m12 -422 c47 -17 117 -49 157 -72 89 -52 211 -173 263 -261 46 -77 90 -196 90 -243 0 -43 -43 -88 -84 -88 -48 1 -73 28 -109 121 -63 161 -156 268 -290 334 -100 49 -166 65 -278 65 -236 0 -434 -123 -537 -335 -45 -92 -64 -177 -65 -285 0 -116 19 -195 74 -301 39 -74 58 -97 197 -227 51 -49 55 -81 13 -123 -54 -53 -114 -31 -234 88 -102 101 -171 215 -209 350 -30 104 -32 293 -4 403 49 193 130 322 279 443 148 119 304 168 522 163 113 -2 141 -7 215 -32z m-94 -652 c115 -60 378 -199 584 -307 952 -502 1099 -579 1155 -610 33 -18 195 -103 360 -190 165 -86 315 -166 333 -177 81 -49 81 -162 0 -204 -31 -16 -524 -192 -775 -277 -75 -26 -123 -47 -123 -55 0 -11 175 -262 440 -632 62 -87 169 -238 274 -389 75 -109 86 -129 86 -167 0 -52 -6 -57 -259 -239 -198 -143 -201 -145 -236 -145 -63 0 -92 29 -238 235 -58 83 -182 258 -276 390 -94 132 -215 302 -269 378 -53 75 -102 136 -109 135 -10 -3 -246 -306 -537 -690 -67 -89 -96 -120 -121 -128 -42 -14 -76 -5 -108 28 -24 25 -32 64 -111 542 -205 1229 -388 2313 -407 2412 -23 120 -17 164 24 194 42 30 92 13 313 -104z"/>
  </g>
  <!-- 右上角圆点表示激活状态 -->
  <circle cx="650" cy="150" r="80" fill="currentColor"/>
</svg>
